<mxfile host="app.diagrams.net" agent="Mozilla/5.0 (X11; Linux x86_64) AppleWebKit/537.36 (KHTML, like Gecko) Chrome/134.0.0.0 Safari/537.36" version="26.2.4">
  <diagram name="Page-1" id="iKc8YEn1j5DGJ7-kQjBc">
    <mxGraphModel dx="1950" dy="658" grid="1" gridSize="10" guides="1" tooltips="1" connect="1" arrows="1" fold="1" page="1" pageScale="1" pageWidth="850" pageHeight="1100" math="0" shadow="0">
      <root>
        <mxCell id="0" />
        <mxCell id="1" parent="0" />
        <mxCell id="B-TksCP96-pEiU8ZytUD-12" value="" style="rounded=1;whiteSpace=wrap;html=1;" vertex="1" parent="1">
          <mxGeometry x="100" y="350" width="320" height="170" as="geometry" />
        </mxCell>
        <mxCell id="B-TksCP96-pEiU8ZytUD-11" value="" style="shape=cylinder3;whiteSpace=wrap;html=1;boundedLbl=1;backgroundOutline=1;size=15;" vertex="1" parent="1">
          <mxGeometry x="215" y="420" width="98" height="80" as="geometry" />
        </mxCell>
        <mxCell id="B-TksCP96-pEiU8ZytUD-13" value="&lt;font style=&quot;font-size: 24px;&quot;&gt;Signal Central Server&lt;/font&gt;" style="text;html=1;align=center;verticalAlign=middle;whiteSpace=wrap;rounded=0;" vertex="1" parent="1">
          <mxGeometry x="130" y="360" width="270" height="30" as="geometry" />
        </mxCell>
        <mxCell id="B-TksCP96-pEiU8ZytUD-14" value="" style="shape=cylinder3;whiteSpace=wrap;html=1;boundedLbl=1;backgroundOutline=1;size=15;" vertex="1" parent="1">
          <mxGeometry x="325" y="420" width="90" height="80" as="geometry" />
        </mxCell>
        <mxCell id="B-TksCP96-pEiU8ZytUD-15" value="" style="shape=cylinder3;whiteSpace=wrap;html=1;boundedLbl=1;backgroundOutline=1;size=15;" vertex="1" parent="1">
          <mxGeometry x="105" y="420" width="98" height="80" as="geometry" />
        </mxCell>
        <mxCell id="B-TksCP96-pEiU8ZytUD-19" value="" style="rounded=1;whiteSpace=wrap;html=1;" vertex="1" parent="1">
          <mxGeometry x="-20" y="46.88" width="430" height="201.25" as="geometry" />
        </mxCell>
        <mxCell id="B-TksCP96-pEiU8ZytUD-21" style="edgeStyle=orthogonalEdgeStyle;rounded=0;orthogonalLoop=1;jettySize=auto;html=1;exitX=1;exitY=0.25;exitDx=0;exitDy=0;entryX=0;entryY=0.5;entryDx=0;entryDy=0;" edge="1" parent="1" source="B-TksCP96-pEiU8ZytUD-1" target="B-TksCP96-pEiU8ZytUD-4">
          <mxGeometry relative="1" as="geometry" />
        </mxCell>
        <mxCell id="B-TksCP96-pEiU8ZytUD-1" value="&lt;span style=&quot;font-size: 14px;&quot;&gt;Python Code&lt;/span&gt;" style="rounded=1;whiteSpace=wrap;html=1;" vertex="1" parent="1">
          <mxGeometry y="110" width="100" height="120" as="geometry" />
        </mxCell>
        <mxCell id="B-TksCP96-pEiU8ZytUD-20" value="&lt;font style=&quot;font-size: 18px;&quot;&gt;Host Machine Linux or Rasbery&lt;/font&gt;" style="text;html=1;align=center;verticalAlign=middle;whiteSpace=wrap;rounded=0;" vertex="1" parent="1">
          <mxGeometry x="-10" y="46.88" width="400" height="30" as="geometry" />
        </mxCell>
        <mxCell id="B-TksCP96-pEiU8ZytUD-10" style="edgeStyle=orthogonalEdgeStyle;rounded=0;orthogonalLoop=1;jettySize=auto;html=1;exitX=1;exitY=0.75;exitDx=0;exitDy=0;entryX=1;entryY=1;entryDx=0;entryDy=0;" edge="1" parent="1" source="B-TksCP96-pEiU8ZytUD-4" target="B-TksCP96-pEiU8ZytUD-4">
          <mxGeometry relative="1" as="geometry" />
        </mxCell>
        <mxCell id="B-TksCP96-pEiU8ZytUD-3" value="" style="rounded=1;whiteSpace=wrap;html=1;" vertex="1" parent="1">
          <mxGeometry x="180" y="110" width="170" height="120" as="geometry" />
        </mxCell>
        <mxCell id="B-TksCP96-pEiU8ZytUD-24" style="edgeStyle=orthogonalEdgeStyle;rounded=0;orthogonalLoop=1;jettySize=auto;html=1;exitX=0.5;exitY=1;exitDx=0;exitDy=0;entryX=0.5;entryY=0;entryDx=0;entryDy=0;" edge="1" parent="1" source="B-TksCP96-pEiU8ZytUD-2" target="B-TksCP96-pEiU8ZytUD-12">
          <mxGeometry relative="1" as="geometry" />
        </mxCell>
        <mxCell id="B-TksCP96-pEiU8ZytUD-2" value="Signal Command Line Interface" style="rounded=1;whiteSpace=wrap;html=1;" vertex="1" parent="1">
          <mxGeometry x="202.5" y="160" width="117.5" height="60" as="geometry" />
        </mxCell>
        <mxCell id="B-TksCP96-pEiU8ZytUD-4" value="Docker Container" style="text;html=1;align=center;verticalAlign=middle;whiteSpace=wrap;rounded=0;" vertex="1" parent="1">
          <mxGeometry x="185" y="110" width="140" height="60" as="geometry" />
        </mxCell>
        <mxCell id="B-TksCP96-pEiU8ZytUD-22" style="edgeStyle=orthogonalEdgeStyle;rounded=0;orthogonalLoop=1;jettySize=auto;html=1;exitX=0;exitY=0.75;exitDx=0;exitDy=0;entryX=0.973;entryY=0.384;entryDx=0;entryDy=0;entryPerimeter=0;" edge="1" parent="1" source="B-TksCP96-pEiU8ZytUD-4" target="B-TksCP96-pEiU8ZytUD-1">
          <mxGeometry relative="1" as="geometry" />
        </mxCell>
        <mxCell id="B-TksCP96-pEiU8ZytUD-17" value="" style="endArrow=classic;html=1;rounded=0;entryX=0.25;entryY=1;entryDx=0;entryDy=0;exitX=0.416;exitY=0.003;exitDx=0;exitDy=0;exitPerimeter=0;" edge="1" parent="1" source="B-TksCP96-pEiU8ZytUD-12" target="B-TksCP96-pEiU8ZytUD-2">
          <mxGeometry width="50" height="50" relative="1" as="geometry">
            <mxPoint x="280" y="390" as="sourcePoint" />
            <mxPoint x="330" y="340" as="targetPoint" />
          </mxGeometry>
        </mxCell>
      </root>
    </mxGraphModel>
  </diagram>
</mxfile>
